<?xml version="1.0" encoding="UTF-8"?>
<!DOCTYPE svg PUBLIC "-//W3C//DTD SVG 1.1//EN" "http://www.w3.org/Graphics/SVG/1.1/DTD/svg11.dtd">
<!-- Creator: CorelDRAW 2018 (64 Bit) -->
<svg xmlns="http://www.w3.org/2000/svg" xml:space="preserve" width="15.6646mm" height="15mm" version="1.1" style="shape-rendering:geometricPrecision; text-rendering:geometricPrecision; image-rendering:optimizeQuality; fill-rule:evenodd; clip-rule:evenodd"
viewBox="0 0 197.47 189.1"
 xmlns:xlink="http://www.w3.org/1999/xlink">
 <defs>
  <style type="text/css">
   <![CDATA[
    .fil0 {fill:#FEFEFE}
   ]]>
  </style>
 </defs>
 <g id="Capa_x0020_1">
  <metadata id="CorelCorpID_0Corel-Layer"/>
  <path class="fil0" d="M12.09 175.65c-0.13,-1.43 3.37,-8.8 4.14,-10.33 3.16,-6.29 10.4,-17.26 15.27,-21.8 1.54,-1.44 2.13,-2.07 3.71,-3.7 3.93,-4.06 11.69,-9.63 16.81,-12.6 6.23,-3.61 13.05,-6.71 20.73,-8.94 27.71,-8.04 58.49,-2.49 81.1,14.85 11.33,8.69 20.21,18.92 26.88,32.18 0.8,1.59 4.42,8.92 4.18,10.52 -0.33,2.24 -2.71,2.17 -5.12,2.16l-162.6 0c-2.42,0.01 -4.86,0.09 -5.08,-2.34zm91.46 -99.85l-12.36 0c-0.03,-1.78 -0.05,-2.85 -0.05,-3.25 0,-3.99 0.66,-7.27 1.99,-9.85 1.32,-2.57 3.95,-5.47 7.93,-8.7 3.97,-3.21 6.34,-5.32 7.12,-6.33 1.2,-1.58 1.8,-3.33 1.8,-5.22 0,-2.62 -1.06,-4.88 -3.18,-6.74 -2.11,-1.88 -4.96,-2.82 -8.55,-2.82 -3.46,0 -6.34,0.99 -8.68,2.95 -2.32,1.98 -3.92,4.97 -4.79,9.01l-12.46 -1.58c0.36,-5.78 2.82,-10.68 7.38,-14.71 4.56,-4.04 10.56,-6.05 17.98,-6.05 7.81,0 14.02,2.04 18.64,6.11 4.61,4.07 6.92,8.8 6.92,14.22 0,2.98 -0.84,5.83 -2.54,8.5 -1.7,2.67 -5.3,6.31 -10.86,10.93 -2.87,2.37 -4.65,4.3 -5.34,5.75 -0.69,1.45 -1,4.04 -0.94,7.78zm-12.36 18.19l0 -13.54 12.36 0 0 13.54 -12.36 0zm39.97 8.09c2.41,-1.78 4.37,-3.53 6.46,-5.65 4.33,-4.39 7.29,-8.17 10.23,-13.98 19.43,-38.4 -8.65,-83.03 -51.11,-82.44 -47.3,0.65 -71.92,54.92 -44.37,90.78 0.92,1.2 1.86,2.24 2.79,3.39 0.94,1.18 1.95,1.92 2.94,2.99 3.76,4.08 8.53,6.83 14.08,10.11 -1.33,0.65 -4.47,1.35 -6.09,1.88 -5.64,1.86 -11.44,4.29 -16.6,7.12 -13.91,7.62 -24.79,16.99 -34.06,29.44 -4.36,5.85 -8.13,12.53 -11.53,20.09 -3.67,8.15 -7.4,17.5 2.21,21.65 5.47,2.36 22.88,1.45 30.1,1.45l143.07 0c5.22,0 9.77,0.55 14.06,-1.69 3.74,-1.95 5.01,-5.68 3.56,-10.93 -4,-14.44 -14.88,-32.17 -25.41,-42.04l-4.07 -3.84c-7.07,-7.13 -21.48,-15.78 -31.83,-19.57 -1.88,-0.69 -3.86,-1.41 -5.85,-2.04 -1.63,-0.52 -4.9,-1.16 -6.1,-1.86l7.53 -4.87z"/>
 </g>
</svg>
