<?xml version="1.0" encoding="UTF-8"?>
<!DOCTYPE svg PUBLIC "-//W3C//DTD SVG 1.1//EN" "http://www.w3.org/Graphics/SVG/1.1/DTD/svg11.dtd">
<!-- Creator: CorelDRAW 2018 (64 Bit) -->
<svg xmlns="http://www.w3.org/2000/svg" xml:space="preserve" width="16.47mm" height="15mm" version="1.1" style="shape-rendering:geometricPrecision; text-rendering:geometricPrecision; image-rendering:optimizeQuality; fill-rule:evenodd; clip-rule:evenodd"
viewBox="0 0 106.47 96.96"
 xmlns:xlink="http://www.w3.org/1999/xlink">
 <defs>
  <style type="text/css">
   <![CDATA[
    .fil0 {fill:white}
   ]]>
  </style>
 </defs>
 <g id="Capa_x0020_1">
  <metadata id="CorelCorpID_0Corel-Layer"/>
  <path class="fil0" d="M67.99 87.35c-10.08,6.54 -21.9,5.99 -31.57,-0.92 -6.76,-4.83 -10.57,-9.72 -14.55,-16.81l-11.4 -19.56c-2.78,-5.01 -4.03,-9.89 -5.11,-15.58 -2.03,-10.71 3,-22.8 12.56,-28.21 1.36,-0.77 2.06,-1.79 3.64,-0.61 3.55,2.66 8.94,12.94 9.45,16.46 0.65,4.55 -0.66,4.82 -3.64,6.66 -2.6,1.61 -4.25,1.99 -6.03,4.49 -1.38,1.94 -2.37,5.25 -1.96,8.3 0.52,3.89 3.06,7.34 4.93,10.63l5.73 9.84c2.11,3.44 3.19,6.4 7.03,8.53 1.08,0.6 2.23,1.09 3.66,1.43 7.81,1.84 11.18,-6.1 15.66,-3.99 2.36,1.11 3.56,2.9 5.25,5.07 1.62,2.08 2.53,4.08 3.97,6.35 1.08,1.69 2.84,5.54 2.37,7.93zm-33.42 -58.03c0.24,-0.56 0.53,-0.91 0.8,-1.47 1.04,-2.12 0.69,-3.66 0.92,-5.67l62.36 0.05c-0.17,0.43 -23.61,18.55 -27.56,21.68 -1.83,1.45 -6.41,5.55 -8.22,5.98 -1.93,0.46 -3.73,-1.26 -4.74,-2.13 -3.27,-2.79 -8.42,-6.42 -11.78,-9.25l-9.85 -7.69c-0.51,-0.4 -1.6,-1.13 -1.94,-1.5zm-3.37 3.07c0.76,1.09 0.57,1.07 1.77,1.97l14.8 11.67c1.43,1.14 2.81,2.25 4.28,3.33 4.68,3.44 8.91,8.48 15.14,4.06 3.26,-2.31 9,-7.1 12.65,-9.94l17.02 -13.32c0.86,-0.69 3.71,-3.1 4.48,-3.28l0 41.39c0,1.32 0.29,2.47 -0.77,3.19 -1.11,0.75 -18.54,0.4 -22.26,0.4 -2.45,-0 -5.1,-0.22 -4.97,2.65 0.12,2.74 2.93,2.33 5.36,2.33 4.07,0 20.81,0.27 22.52,-0.25 5.97,-1.83 5.14,-6.25 5.14,-10.06 0,-3.94 0.37,-43.06 -0.34,-45.04 -1.71,-4.74 -7.61,-4.28 -10.96,-4.28 -1.63,0 -58.73,0.21 -60.45,-0.09 -0.8,-2.7 -3.98,-8.3 -5.67,-10.65 -2.22,-3.09 -5.41,-7.22 -9.99,-6.33 -1.49,0.29 -5.57,2.89 -6.9,4l-2.14 1.93c-0.27,0.31 -0.05,0.08 -0.28,0.31 -3.18,3.27 -4.93,5.25 -6.99,10.14 -1.05,2.5 -2.09,5.71 -2.39,8.51 -1.07,9.85 1.28,18.25 5.46,26.87 1.08,2.22 2.67,4.48 4,6.92 1.4,2.57 2.67,4.6 3.98,6.93 2.03,3.6 6.02,10.58 8.28,13.51 6.8,8.81 14.87,15.51 26.39,17.41 5.96,0.98 14,-0.42 18.49,-2.84 2.56,-1.38 5.04,-2.57 5.94,-4.98 1.06,-2.86 -0.39,-6.9 -1.32,-9.05 -1.53,-3.52 -2.13,-3.94 -3.96,-6.94 -3.39,-5.55 -8.99,-12.81 -16.68,-9.28 -1.13,0.52 -2.52,1.35 -3.51,1.93 -0.6,0.35 -1.07,0.64 -1.69,1.04 -0.6,0.39 -1.29,0.59 -2.15,0.64 -2.95,0.16 -5.58,-1.62 -6.96,-4.02l-8.99 -15.54c-0.76,-1.33 -2.56,-4.16 -2.83,-5.31 -0.37,-1.53 -0.4,-3.79 0.18,-5.11 0.82,-1.86 2.43,-2.65 4.43,-3.75 0.6,-0.33 1.29,-0.83 1.91,-1.05z"/>
 </g>
</svg>
