<?xml version="1.0" encoding="UTF-8"?>
<!DOCTYPE svg PUBLIC "-//W3C//DTD SVG 1.1//EN" "http://www.w3.org/Graphics/SVG/1.1/DTD/svg11.dtd">
<!-- Creator: CorelDRAW 2018 (64 Bit) -->
<svg xmlns="http://www.w3.org/2000/svg" xml:space="preserve" width="11.6629mm" height="12.0058mm" version="1.1" style="shape-rendering:geometricPrecision; text-rendering:geometricPrecision; image-rendering:optimizeQuality; fill-rule:evenodd; clip-rule:evenodd"
viewBox="0 0 45.28 46.61"
 xmlns:xlink="http://www.w3.org/1999/xlink">
 <defs>
  <style type="text/css">
   <![CDATA[
    .fil0 {fill:#FF0066}
   ]]>
  </style>
 </defs>
 <g id="Capa_x0020_1">
  <metadata id="CorelCorpID_0Corel-Layer"/>
  <path class="fil0" d="M42.65 9.45l-2.7 2.39c-0.21,0.22 -0.16,0.21 -0.39,0.35 0.29,0.2 1.58,0.29 1.87,1.74 0.14,0.67 0.04,16.26 0.04,18.18 0,1.36 0.19,3.38 -1.77,3.65 -0.5,0.07 -1.31,0.02 -1.84,0.02 -9.76,0 -19.52,0 -29.29,0 -2.22,0 -4.76,0.56 -4.75,-2.46l0 -18.24c-0,-3.28 1.81,-2.85 4.48,-2.85 1.67,0 17.85,0.07 18.3,-0 0.19,-0.03 0.73,-0.67 0.92,-0.88l2.57 -2.91 -21.66 -0c-1.32,0 -2.9,-0.11 -4.13,0.22 -2.06,0.56 -3.75,2.35 -4.18,4.57 -0.2,1.05 -0.1,7.05 -0.1,8.58 0,1.66 -0.11,11.73 0.09,12.9 0.36,2.14 1.98,4.01 4.13,4.63 1.28,0.37 2.77,0.24 4.13,0.24l30.43 0c1.45,0 2.47,-0.16 3.56,-0.81 2.24,-1.35 2.9,-3.23 2.9,-5.78l0 -17.44c0,-1.56 0.05,-2.46 -0.59,-3.78 -0.49,-1 -1.23,-1.82 -2.03,-2.32zm-5.39 -5.55c0.17,0.34 3.43,3.45 3.84,3.89 0.24,-0.1 1.22,-1.08 1.55,-1.34l2.25 -2.06c0.26,-0.34 0.11,-0.87 -0.04,-1.22 -0.35,-0.83 -2.88,-3.68 -4.08,-3.1 -0.12,0.06 -0.64,0.59 -0.75,0.73l-2.07 2.3c-0.24,0.31 -0.47,0.46 -0.7,0.79zm-20.61 24.17c2.72,-0.13 5.58,-0.49 7.47,-1.84 2.07,-1.48 2.98,-4.25 0.93,-6.07 -0.97,-0.86 -1.97,-1.32 -3.42,-1.14 -3.59,0.45 -3.87,4.54 -4.44,7.21 -0.15,0.7 -0.39,1.24 -0.54,1.84zm23.93 -19.71c-0.2,-0.36 -3.21,-3.2 -3.83,-3.89 -0.27,0.26 -0.55,0.57 -0.8,0.87l-1.61 1.75c-0.16,0.15 -0.23,0.27 -0.37,0.44l-0.8 0.88c-0.43,0.4 -0.36,0.43 -0.81,0.87l-2.81 3.11c-0.16,0.2 -0.18,0.23 -0.39,0.42l-0.8 0.88c-0.16,0.18 -0.23,0.31 -0.4,0.47l-1.18 1.32c-1.07,1.25 -2.57,1.97 -0.89,3.65 0.26,0.26 0.5,0.56 0.97,0.72 0.76,0.25 1.23,-0.12 1.71,-0.64l8.46 -7.64c0.18,-0.16 0.22,-0.25 0.4,-0.4 0.2,-0.16 0.29,-0.21 0.47,-0.41l1.76 -1.6c0.34,-0.27 0.59,-0.61 0.94,-0.81zm-38.91 34.43c-1.88,0.29 -2.17,2.74 -0.65,3.55 0.78,0.42 4.71,0.22 5.88,0.22 1.91,0 36.1,0.08 36.78,-0.02 1.8,-0.26 2.19,-2.71 0.61,-3.55 -0.79,-0.42 -4.69,-0.22 -5.88,-0.22 -1.87,0 -36.13,-0.08 -36.74,0.02z"/>
 </g>
</svg>
