<?xml version="1.0" encoding="UTF-8"?>
<!DOCTYPE svg PUBLIC "-//W3C//DTD SVG 1.1//EN" "http://www.w3.org/Graphics/SVG/1.1/DTD/svg11.dtd">
<!-- Creator: CorelDRAW 2018 (64 Bit) -->
<svg xmlns="http://www.w3.org/2000/svg" xml:space="preserve" width="4.8034mm" height="4.8055mm" version="1.1" style="shape-rendering:geometricPrecision; text-rendering:geometricPrecision; image-rendering:optimizeQuality; fill-rule:evenodd; clip-rule:evenodd"
viewBox="0 0 8.48 8.49"
 xmlns:xlink="http://www.w3.org/1999/xlink">
 <defs>
  <style type="text/css">
   <![CDATA[
    .fil0 {fill:#FFCC29}
   ]]>
  </style>
 </defs>
 <g id="Capa_x0020_1">
  <metadata id="CorelCorpID_0Corel-Layer"/>
  <path class="fil0" d="M3.93 0.01c-0.18,0.02 -0.25,0.02 -0.47,0.06 -0.8,0.15 -1.54,0.52 -2.11,1.07 -0.28,0.27 -0.51,0.53 -0.71,0.87 -0.14,0.23 -0.25,0.44 -0.35,0.71 -0.45,1.11 -0.35,2.43 0.19,3.48 0.19,0.38 0.49,0.77 0.78,1.06 0.63,0.62 1.39,1 2.29,1.16 0.85,0.16 1.9,-0.02 2.65,-0.42 0.5,-0.27 0.87,-0.56 1.19,-0.92 0.65,-0.72 1.17,-1.79 1.08,-3.15 -0.06,-0.85 -0.39,-1.66 -0.88,-2.29 -0.25,-0.32 -0.49,-0.55 -0.8,-0.79 -0.53,-0.41 -1.18,-0.68 -1.86,-0.8 -0.25,-0.04 -0.75,-0.08 -1,-0.04zm-1.17 4.54c0.15,0 0.3,0 0.45,0 0.09,0 0.38,-0.01 0.45,0.01 0.04,0.1 -0.02,2.46 0.01,2.6l0.99 0 -0 -2.6c0.06,-0.02 0.92,-0.01 1.05,-0.01l0 -0.86c-0.26,-0.01 -0.64,-0 -0.91,-0 -0.02,0 -0.04,0 -0.06,0 -0.01,0 -0.03,-0 -0.04,-0 -0.04,-0.01 -0.01,0 -0.03,-0.01 -0,-0.13 -0.01,-0.59 0.01,-0.71 0.01,-0.05 0.06,-0.14 0.09,-0.16 0.09,-0.06 0.8,-0.01 0.93,-0.04 0.01,-0.09 0.02,-0.84 0.01,-0.92l-0.86 0c-0.58,-0.05 -1.09,0.53 -1.17,1.08 -0.03,0.24 0,0.63 -0.02,0.74l-0.9 0 0 0.86z"/>
 </g>
</svg>
