<?xml version="1.0" encoding="UTF-8"?>
<!DOCTYPE svg PUBLIC "-//W3C//DTD SVG 1.1//EN" "http://www.w3.org/Graphics/SVG/1.1/DTD/svg11.dtd">
<!-- Creator: CorelDRAW 2018 (64 Bit) -->
<svg xmlns="http://www.w3.org/2000/svg" xml:space="preserve" width="4.6743mm" height="4.676mm" version="1.1" style="shape-rendering:geometricPrecision; text-rendering:geometricPrecision; image-rendering:optimizeQuality; fill-rule:evenodd; clip-rule:evenodd"
viewBox="0 0 8.04 8.04"
 xmlns:xlink="http://www.w3.org/1999/xlink">
 <defs>
  <style type="text/css">
   <![CDATA[
    .fil0 {fill:#FFCC29}
   ]]>
  </style>
 </defs>
 <g id="Capa_x0020_1">
  <metadata id="CorelCorpID_0Corel-Layer"/>
  <path class="fil0" d="M2.77 3.49l0.14 -0.24c0.09,-0.13 0.11,-0.13 0.17,-0.2 0.09,-0.1 0.29,-0.23 0.45,-0.29 0.29,-0.12 0.64,-0.12 0.95,-0 0.1,0.04 0.17,0.08 0.25,0.12 0.12,0.11 0.17,0.09 0.35,0.32 0.22,0.29 0.32,0.67 0.25,1.05 -0.02,0.13 -0.12,0.41 -0.19,0.48 -0.04,0.07 -0.07,0.11 -0.12,0.17 -0.03,0.03 -0.04,0.05 -0.07,0.07 -0.02,0.02 -0.05,0.04 -0.07,0.06 -0.25,0.2 -0.59,0.37 -1.03,0.31 -0.15,-0.02 -0.27,-0.05 -0.39,-0.11 -0.05,-0.02 -0.12,-0.06 -0.16,-0.09 -0.04,-0.03 -0.11,-0.09 -0.15,-0.09 -0.02,-0.03 -0.11,-0.11 -0.14,-0.15 -0.11,-0.13 -0.16,-0.19 -0.23,-0.36 -0.03,-0.08 -0.05,-0.14 -0.08,-0.22 -0.05,-0.21 -0.05,-0.35 -0.02,-0.57 0.01,-0.05 0.08,-0.26 0.08,-0.28zm-0.8 0.3c-0.02,0.14 -0.02,0.47 0.02,0.59 0.01,0.09 0.04,0.21 0.07,0.29l0.11 0.25c0,0.06 0.14,0.25 0.17,0.3 0.19,0.27 0.45,0.49 0.77,0.65 0.21,0.1 0.47,0.18 0.74,0.2 0.33,0.03 0.55,-0.03 0.84,-0.11 0.15,-0.06 0.26,-0.1 0.39,-0.18 0.09,-0.06 0.28,-0.19 0.32,-0.25 0.06,-0.03 0.1,-0.09 0.14,-0.14 0.04,-0.05 0.1,-0.1 0.13,-0.16 0.08,-0.07 0.21,-0.33 0.26,-0.46 0.07,-0.17 0.12,-0.38 0.14,-0.59 0.02,-0.23 -0,-0.45 -0.05,-0.67 -0.03,-0.12 -0.14,-0.45 -0.21,-0.51 -0.03,-0.12 -0.26,-0.38 -0.34,-0.46 -0.44,-0.44 -1.1,-0.68 -1.77,-0.57 -0.22,0.03 -0.43,0.1 -0.6,0.19 -0.35,0.17 -0.62,0.43 -0.83,0.76 -0.08,0.13 -0.21,0.4 -0.24,0.57 -0.02,0.05 -0.05,0.22 -0.05,0.29zm4.64 4.05c0.09,-0.04 0.27,-0.1 0.32,-0.16 0.16,-0.05 0.47,-0.36 0.59,-0.51 0.1,-0.13 0.18,-0.26 0.25,-0.41 0.09,-0.21 0.16,-0.44 0.2,-0.69 0.02,-0.16 0.07,-0.7 0.05,-0.84 0.04,-0.06 0.01,-2.41 -0,-2.67 -0.01,-0.25 -0.02,-0.5 -0.07,-0.74 -0.03,-0.15 -0.13,-0.5 -0.2,-0.6 -0.04,-0.13 -0.23,-0.38 -0.33,-0.48l-0.14 -0.13c-0.15,-0.12 -0.49,-0.37 -0.69,-0.4 -0.06,-0.05 -0.37,-0.11 -0.47,-0.13 -0.19,-0.03 -0.38,-0.04 -0.57,-0.05 -0.4,-0.01 -0.79,-0.01 -1.19,-0.02 -0.61,0 -1.72,-0.02 -2.28,0.05 -0.46,0.05 -0.93,0.21 -1.25,0.49 -0.09,0.08 -0.21,0.19 -0.29,0.29 -0.07,0.05 -0.21,0.29 -0.26,0.41 -0.04,0.08 -0.07,0.16 -0.09,0.24 -0.03,0.09 -0.05,0.18 -0.08,0.27 -0,0.08 -0.05,0.27 -0.06,0.38 -0.01,0.11 -0.03,0.31 -0.02,0.42 -0.02,0.11 -0.01,0.41 -0.02,0.55 -0,0.19 -0,0.38 -0,0.57l-0 0.47 0 0.7 0.01 0.34c-0,0.2 0.02,0.83 0.07,0.98 0.02,0.2 0.19,0.67 0.28,0.78 0.03,0.08 0.17,0.26 0.22,0.3l0.17 0.18c0.02,0.02 0.04,0.03 0.07,0.05 0.04,0.03 0.23,0.18 0.28,0.19 0.02,0.02 0.04,0.03 0.06,0.04 0.42,0.22 0.83,0.28 1.32,0.29 0.55,0.02 1.15,0.04 1.7,0.02l0.71 -0.01c0,0 0,0 0,0l0.27 -0c0.08,0.01 0.43,0 0.49,-0.02 0.05,0.01 0.18,0.01 0.22,-0.02 0.04,0 0.3,-0.02 0.35,-0.05 0.09,0.01 0.3,-0.08 0.4,-0.1zm0.14 -0.89c-0.09,0.06 -0.17,0.13 -0.29,0.17 -0.03,0.03 -0.21,0.08 -0.27,0.1 -0.1,0.03 -0.2,0.04 -0.31,0.06l-0.39 0.03 -0.37 0.01 -0.22 0c-0.66,0.01 -1.33,0.01 -1.99,-0 -0.48,-0.01 -0.9,-0 -1.33,-0.18 -0.19,-0.08 -0.22,-0.14 -0.32,-0.18 -0.01,-0.03 -0.04,-0.04 -0.06,-0.07 -0.03,-0.03 -0.05,-0.04 -0.07,-0.07 -0.03,-0.03 -0.1,-0.13 -0.13,-0.15 -0.01,-0.04 -0.07,-0.14 -0.1,-0.2 -0.03,-0.07 -0.06,-0.15 -0.08,-0.23 -0.05,-0.18 -0.07,-0.34 -0.08,-0.54l-0.02 -0.89 -0 -0.55 0 -0.64 0 -0.5c0.02,-0.14 0.01,-0.35 0.01,-0.5 0.01,-0.17 0.01,-0.33 0.03,-0.5 0.02,-0.13 0.04,-0.25 0.08,-0.37 0.02,-0.05 0.04,-0.11 0.06,-0.16 0.02,-0.06 0.06,-0.1 0.08,-0.16 0.08,-0.08 0.16,-0.25 0.41,-0.41 0.18,-0.12 0.35,-0.17 0.55,-0.21l0.05 -0.02 0.23 -0.02c0.38,-0.02 0.74,-0.03 1.12,-0.03 0.61,-0.01 1.24,-0 1.85,0.01 0.28,0 0.6,0.01 0.87,0.06 0.18,0.03 0.36,0.09 0.51,0.18 0.05,0.03 0.1,0.07 0.15,0.09 0.02,0.03 0.14,0.13 0.21,0.21 0.14,0.17 0.21,0.32 0.28,0.55 0.02,0.07 0.05,0.31 0.07,0.35l0.03 0.61c0.01,0.64 0.01,1.33 0.01,1.97 -0,0.59 0.03,1.31 -0.24,1.82 -0.12,0.22 -0.3,0.35 -0.31,0.38zm-0.69 -5.54c-0.23,0.05 -0.44,0.27 -0.38,0.57 0.05,0.23 0.28,0.43 0.57,0.37 0.23,-0.05 0.43,-0.28 0.37,-0.57 -0.05,-0.23 -0.28,-0.43 -0.57,-0.37z"/>
 </g>
</svg>
