<?xml version="1.0" encoding="UTF-8"?>
<!DOCTYPE svg PUBLIC "-//W3C//DTD SVG 1.1//EN" "http://www.w3.org/Graphics/SVG/1.1/DTD/svg11.dtd">
<!-- Creator: CorelDRAW 2018 (64 Bit) -->
<svg xmlns="http://www.w3.org/2000/svg" xml:space="preserve" width="3.6639mm" height="5.2897mm" version="1.1" style="shape-rendering:geometricPrecision; text-rendering:geometricPrecision; image-rendering:optimizeQuality; fill-rule:evenodd; clip-rule:evenodd"
viewBox="0 0 5.67 8.19"
 xmlns:xlink="http://www.w3.org/1999/xlink">
 <defs>
  <style type="text/css">
   <![CDATA[
    .fil0 {fill:#FF0066}
   ]]>
  </style>
 </defs>
 <g id="Capa_x0020_1">
  <metadata id="CorelCorpID_0Corel-Layer"/>
  <path class="fil0" d="M2.6 1.3c0.93,-0.15 1.66,0.53 1.78,1.3 0.13,0.82 -0.43,1.63 -1.29,1.78 -0.68,0.12 -1.26,-0.22 -1.59,-0.74 -0.54,-0.83 -0.08,-2.15 1.1,-2.34zm3.07 1.21c-0.03,-0.05 -0.02,-0.1 -0.03,-0.16 -0.02,-0.27 -0.19,-0.68 -0.31,-0.88 -0.22,-0.38 -0.5,-0.71 -0.85,-0.95 -1.52,-1.05 -3.56,-0.45 -4.27,1.23 -0.26,0.62 -0.29,1.35 -0.05,2 0.22,0.6 0.89,1.77 1.23,2.33 0.13,0.21 1.29,1.99 1.44,2.1 0.08,-0.06 0.83,-1.16 0.89,-1.25 0.29,-0.46 0.53,-0.81 0.82,-1.3 0.27,-0.44 0.51,-0.91 0.74,-1.39 0.4,-0.84 0.38,-0.86 0.38,-1.74z"/>
 </g>
</svg>
