<?xml version="1.0" encoding="UTF-8"?>
<!DOCTYPE svg PUBLIC "-//W3C//DTD SVG 1.1//EN" "http://www.w3.org/Graphics/SVG/1.1/DTD/svg11.dtd">
<!-- Creator: CorelDRAW 2018 (64 Bit) -->
<svg xmlns="http://www.w3.org/2000/svg" xml:space="preserve" width="14.3336mm" height="13.6989mm" version="1.1" style="shape-rendering:geometricPrecision; text-rendering:geometricPrecision; image-rendering:optimizeQuality; fill-rule:evenodd; clip-rule:evenodd"
viewBox="0 0 80.77 77.2"
 xmlns:xlink="http://www.w3.org/1999/xlink">
 <defs>
  <style type="text/css">
   <![CDATA[
    .fil0 {fill:#FF0066}
   ]]>
  </style>
 </defs>
 <g id="Capa_x0020_1">
  <metadata id="CorelCorpID_0Corel-Layer"/>
  <path class="fil0" d="M5.55 56.46c-0.07,0.33 -0.11,0.88 -0.15,1.22l-0.95 8.08c-0.1,0.75 0.16,0.75 1.16,1.75l5.2 5.2c0.21,0.15 2.15,-0.15 2.43,-0.18l6.21 -0.73c0.33,-0.04 0.91,-0.08 1.24,-0.16l7.24 -19.12 -1.08 -1.1 -9.91 9.91c0.13,0.65 0.47,0.87 0.35,2 -0.26,2.36 -3.35,3.73 -5.26,1.83 -2.35,-2.34 0.26,-6.22 3.3,-5.08l0.53 0.17 9.91 -9.91 -1.11 -1.11 -19.12 7.24zm38.25 -45.08c12.64,0 22.88,10.24 22.88,22.88 0,12.64 -10.24,22.88 -22.88,22.88 -12.64,0 -22.88,-10.24 -22.88,-22.88 0,-12.64 10.24,-22.88 22.88,-22.88zm-25.83 20.26l0 0c0,0.69 -0.56,1.25 -1.25,1.25l-6.72 0c-0.69,0 -1.25,-0.56 -1.25,-1.25l0 -0c0,-0.69 0.56,-1.25 1.25,-1.25l6.72 0c0.69,0 1.25,0.56 1.25,1.25zm47.93 16.94l0 -0c0.46,-0.51 1.25,-0.56 1.76,-0.1l5.01 4.48c0.51,0.46 0.56,1.25 0.1,1.76l0 0c-0.46,0.51 -1.25,0.56 -1.76,0.1l-5.01 -4.48c-0.51,-0.46 -0.56,-1.25 -0.1,-1.76zm14.88 -16.94l0 0c0,0.69 -0.56,1.25 -1.25,1.25l-6.72 0c-0.69,0 -1.25,-0.56 -1.25,-1.25l0 -0c0,-0.69 0.56,-1.25 1.25,-1.25l6.72 0c0.69,0 1.25,0.56 1.25,1.25zm-18.11 -15.08l0 0c0.46,0.51 1.25,0.56 1.76,0.1l5.01 -4.48c0.51,-0.46 0.56,-1.25 0.1,-1.76l0 -0c-0.46,-0.51 -1.25,-0.56 -1.76,-0.1l-5.01 4.48c-0.51,0.46 -0.56,1.25 -0.1,1.76zm-18.86 -16.57l0 0c0.69,0 1.25,0.56 1.25,1.25l0 6.72c0,0.69 -0.56,1.25 -1.25,1.25l-0 0c-0.69,0 -1.25,-0.56 -1.25,-1.25l0 -6.72c0,-0.69 0.56,-1.25 1.25,-1.25zm-18.93 14.95l0 0c-0.46,0.51 -1.25,0.56 -1.76,0.1l-5.01 -4.48c-0.51,-0.46 -0.56,-1.25 -0.1,-1.76l0 -0c0.46,-0.51 1.25,-0.56 1.76,-0.1l5.01 4.48c0.51,0.46 0.56,1.25 0.1,1.76zm10.5 43.81l16.86 0c0.97,0 1.75,0.79 1.75,1.75l0 1.6c0,0.97 -0.79,1.75 -1.75,1.75l-16.86 0c-0.97,0 -1.75,-0.79 -1.75,-1.75l0 -1.6c0,-0.97 0.79,-1.75 1.75,-1.75zm4.5 12.26l7.86 0c0.86,0 1.56,0.7 1.56,1.56l0 1.42c0,0.86 -0.7,1.56 -1.56,1.56l-7.86 0c-0.86,0 -1.56,-0.7 -1.56,-1.56l0 -1.42c0,-0.86 0.7,-1.56 1.56,-1.56zm-2.43 -5.72l12.72 0c0.86,0 1.56,0.7 1.56,1.56l0 1.42c0,0.86 -0.7,1.56 -1.56,1.56l-12.72 0c-0.86,0 -1.56,-0.7 -1.56,-1.56l0 -1.42c0,-0.86 0.7,-1.56 1.56,-1.56zm6.36 -50.3c10.64,0 19.27,8.63 19.27,19.27 0,10.64 -8.63,19.27 -19.27,19.27 -10.64,0 -19.27,-8.63 -19.27,-19.27 0,-10.64 8.63,-19.27 19.27,-19.27zm-43.8 55.7l6.5 6.5 2.21 -2.2 -6.53 -6.48 -2.17 2.19z"/>
 </g>
</svg>
