<?xml version="1.0" encoding="UTF-8"?>
<!DOCTYPE svg PUBLIC "-//W3C//DTD SVG 1.1//EN" "http://www.w3.org/Graphics/SVG/1.1/DTD/svg11.dtd">
<!-- Creator: CorelDRAW 2018 (64 Bit) -->
<svg xmlns="http://www.w3.org/2000/svg" xml:space="preserve" width="3.4976mm" height="4.5206mm" version="1.1" style="shape-rendering:geometricPrecision; text-rendering:geometricPrecision; image-rendering:optimizeQuality; fill-rule:evenodd; clip-rule:evenodd"
viewBox="0 0 5.42 7"
 xmlns:xlink="http://www.w3.org/1999/xlink">
 <defs>
  <style type="text/css">
   <![CDATA[
    .fil0 {fill:yellow}
   ]]>
  </style>
 </defs>
 <g id="Capa_x0020_1">
  <metadata id="CorelCorpID_0Corel-Layer"/>
  <path class="fil0" d="M5.38 1.41c0.09,0.46 -0.01,1.02 -0.12,1.37 -0.1,0.33 -0.24,0.72 -0.37,1.03 -0.02,0.05 -0.04,0.1 -0.06,0.14l-0.28 0.55c-0.05,0.08 -0.18,0.32 -0.23,0.4 -0.03,0.04 -0.06,0.08 -0.08,0.12 -0.2,0.29 -0.5,0.67 -0.82,0.93 -0.33,0.27 -0.7,0.55 -1.08,0.78 -0.48,0.29 -0.9,0.33 -1.38,0.19 -0.43,-0.13 -0.71,-0.29 -0.92,-0.88 -0.06,-0.18 -0.08,-0.25 0.02,-0.36l0.71 -0.64c0.55,-0.47 0.52,-0.48 0.81,-0.24 0.17,0.14 0.34,0.25 0.5,0.38 0.07,0.06 0.17,0.13 0.3,0.06 0.11,-0.06 0.4,-0.32 0.49,-0.41 0.5,-0.5 0.75,-0.91 1,-1.55 0.4,-1.02 0.05,-0.6 -0.5,-1.26 -0.1,-0.12 -0.07,-0.2 -0.06,-0.33 0.03,-0.23 0.06,-0.45 0.08,-0.67 0.01,-0.12 0.03,-0.22 0.04,-0.33 0.03,-0.21 0.02,-0.52 0.22,-0.59 0.43,-0.14 0.64,-0.17 0.99,0.11 0.34,0.27 0.62,0.59 0.73,1.19z"/>
 </g>
</svg>
