<?xml version="1.0" encoding="UTF-8"?>
<!DOCTYPE svg PUBLIC "-//W3C//DTD SVG 1.1//EN" "http://www.w3.org/Graphics/SVG/1.1/DTD/svg11.dtd">
<!-- Creator: CorelDRAW 2018 (64 Bit) -->
<svg xmlns="http://www.w3.org/2000/svg" xml:space="preserve" width="30.6483mm" height="23.3754mm" version="1.1" style="shape-rendering:geometricPrecision; text-rendering:geometricPrecision; image-rendering:optimizeQuality; fill-rule:evenodd; clip-rule:evenodd"
viewBox="0 0 162.55 123.98"
 xmlns:xlink="http://www.w3.org/1999/xlink">
 <defs>
  <style type="text/css">
   <![CDATA[
    .fil0 {fill:#660066}
   ]]>
  </style>
 </defs>
 <g id="Capa_x0020_1">
  <metadata id="CorelCorpID_0Corel-Layer"/>
  <path class="fil0" d="M63.44 42.39c1.95,0.09 4.11,-0.03 5.62,0.53 1.74,4.4 -2.21,3.46 -5.73,3.66l0.07 3.12c2.4,0.08 3.88,-0.12 5.75,0.55 1.3,4.65 -2.01,3.51 -5.82,3.71l-0.04 3.06c2.73,0.18 6.14,-0.62 6.2,2.11 0.06,2.86 -3.61,2.03 -6.14,2.18l-0.04 3.05c3.17,0.33 3.77,-0.43 5.97,0.98 0.9,4.15 -2.95,3.19 -6.03,3.3l0.03 3.12c2.46,0.08 6.22,-0.71 6.19,2.21 -0.02,2.75 -3.42,1.9 -6.22,2.09 0.23,7.77 -1.13,16.06 2.27,22.32 6.07,11.15 23.24,13.39 31.21,0.25 3.25,-5.36 2.7,-15.32 2.37,-22.5 -3.3,-0.57 -3.29,0.47 -6.17,-1.15l0.1 -2.3c2.55,-1.38 2.87,-0.58 6.07,-1.01l0.06 -2.94c-3.03,-0.42 -6.93,0.67 -6,-3.47 2.09,-1.26 3.1,-0.5 5.97,-0.88l-0.02 -3.07c-2.84,-0.29 -4.01,0.31 -6.01,-0.93 -0.67,-4.17 2.73,-3.09 5.85,-3.25l0.19 -3.16c-3.77,-0.45 -7.33,1.02 -5.85,-3.77l5.63 -0.56 0.24 -3.05c-2.72,-0.3 -6.06,0.65 -6.23,-1.9 -0.21,-3.03 3.56,-2.16 6.07,-2.35 0.83,-13.32 -17.59,-24.33 -30.33,-12.41 -2.38,2.22 -5.76,7.57 -5.22,12.44zm74 34.64c0,5.1 6,6.04 5.55,-1.78 -0.13,-2.25 -1.02,-4.22 -3.44,-3.65 -2.46,0.57 -2.11,3.01 -2.11,5.43zm-115.87 -5.32c-2.53,1.01 -2.19,2.73 -2.01,5.79 0.13,2.26 1.26,4.01 3.71,3.12 2.95,-1.07 2.58,-10.62 -1.7,-8.91zm108.05 -10.6c-2.14,1.22 -1.51,4.38 -1.5,7.18l-0.01 18.36c-0.02,2.67 0.43,6.31 4.04,4.69 2.44,-1.09 1.43,-13.66 1.43,-16.5 0,-5.02 1.37,-16.75 -3.95,-13.73zm-100.77 2.38l0 24.89c0,3.68 3.22,4.43 5.12,1.75 0.77,-1.3 0.46,-26.52 0.19,-27.47 -0.89,-3.16 -5.32,-2.33 -5.32,0.83zm80.12 -7.86l0 41.05c0,4.99 5.47,5.67 5.47,0l0 -41.05c0,-5.44 -5.47,-4.82 -5.47,0zm-60.95 26.2l0 13.1c0,2.43 -0.4,4.93 1.97,5.53 2.58,0.65 3.45,-1.47 3.45,-3.78l0 -41.05c0,-3.73 -3.02,-4.92 -4.76,-2.88 -1.43,1.69 -0.67,25.95 -0.67,29.08zm70.62 -32.31l0 53.71c0,4.52 5.42,5.24 5.42,-0.44l0 -53.27c0,-5.26 -5.42,-5.22 -5.42,0zm-80.28 -0.44l0 54.15c0,5 5.55,4.79 5.55,0l0 -54.15c0,-4.56 -5.55,-4.71 -5.55,0zm40.42 69.94c-3.43,4.48 -11.81,-1.73 -12.51,4.86l30.1 0.09c-1.15,-6.84 -9.16,-0.41 -12.65,-4.91 -0.63,-1.36 -0.59,-3.81 -0.06,-5.57 0.9,-1.41 18.39,-3.18 20.11,-20.35 0.15,-1.45 0.55,-13.24 0.52,-13.39l-3.69 -0.14c-0.18,3.82 2.95,12.68 -2.74,21.49 -10.26,15.9 -34.83,9.66 -36.57,-9.33 -0.2,-2.13 -0.08,-4.31 -0.1,-6.45 -0.02,-2.26 0.65,-4.19 0.58,-5.42l-3.66 -0.3c-0.05,0.83 0.58,2.91 0.57,7.04 -0.02,7.38 -0.12,11.09 4.81,17.74 5.27,7.09 12.82,7.45 14.41,8.32 1.59,0.87 1.61,4.59 0.87,6.33zm-73.04 -53.82c-6.04,1.4 -5.7,5.84 -5.72,12.26 -0.02,6.48 1.07,9.96 7.86,10.11 8.29,0.18 6.82,-3.65 6.82,-10.98 0,-7.25 1.67,-11.46 -6.44,-11.46 -0.36,-9.57 8.68,-27.11 15.39,-35.24 4.91,-5.94 5.29,-6.19 10.45,-10.5 21.16,-17.71 49.45,-21.83 75.55,-11.35 8.48,3.4 14.3,7.66 20.91,13.15 9.04,7.52 22.14,26.56 23.76,43.73 -7.2,1.03 -6.54,1.05 -6.54,11.24 0,7.38 -1.72,11.61 6.87,11.45 6.77,-0.13 7.96,-3.73 7.93,-10.14 -0.03,-7.77 0.57,-9.56 -5.85,-12.59 -2.16,-21.71 -16.54,-39.4 -29.25,-49.35 -1.57,-1.23 -3.41,-2.47 -5.15,-3.6 -45.85,-29.78 -109.6,-0.73 -116.58,53.28z"/>
 </g>
</svg>
