<?xml version="1.0" encoding="UTF-8"?>
<!DOCTYPE svg PUBLIC "-//W3C//DTD SVG 1.1//EN" "http://www.w3.org/Graphics/SVG/1.1/DTD/svg11.dtd">
<!-- Creator: CorelDRAW 2018 (64 Bit) -->
<svg xmlns="http://www.w3.org/2000/svg" xml:space="preserve" width="15.2143mm" height="15mm" version="1.1" style="shape-rendering:geometricPrecision; text-rendering:geometricPrecision; image-rendering:optimizeQuality; fill-rule:evenodd; clip-rule:evenodd"
viewBox="0 0 79.09 77.97"
 xmlns:xlink="http://www.w3.org/1999/xlink">
 <defs>
  <style type="text/css">
   <![CDATA[
    .fil0 {fill:white}
   ]]>
  </style>
 </defs>
 <g id="Capa_x0020_1">
  <metadata id="CorelCorpID_0Corel-Layer"/>
  <path class="fil0" d="M35.65 41.51c0.43,-0.29 4.46,-0.16 5.28,-0.16 0.89,0 1.92,-0.11 2.55,0.22 0.61,0.31 1.07,0.72 1.34,1.39 0.25,0.65 0.14,4.35 0.14,5.35 -0,1.28 0.26,3.1 -1.52,3.85 -0.45,0.19 -7.09,0.36 -7.9,-0.06 -2.01,-1.03 -1.43,-3.47 -1.43,-6.74 -0,-1.87 -0.24,-2.77 1.38,-3.75 0.02,-0.01 0.07,-0.01 0.08,-0.05 0.01,-0.04 0.06,-0.04 0.08,-0.05zm-30.74 3.48c-0.17,-3.14 -0.02,-11.03 -0.02,-14.7 0,-1.64 -0.29,-6.5 0.34,-7.57 1.31,-2.24 2.73,-2 4.85,-2l58.96 0c1.87,0 4.07,-0.21 4.95,2.47 0.38,1.14 0.18,5.64 0.18,7.21 0,2.62 0.13,12.89 -0.03,14.62l-26.71 -0.04c-0.09,-1.46 0.09,-1.77 -0.44,-3.08 -1.34,-3.32 -4.95,-2.92 -7.55,-2.92 -2.35,0 -4.41,-0.27 -5.93,1.03 -1.91,1.64 -1.7,2.66 -1.91,5 -3.18,0.2 -9.8,0.02 -13.6,0.02 -1.34,0 -3.25,-0.29 -3.22,1.26 0.03,1.48 1.93,1.21 3.33,1.21 3.34,0 11.1,-0.19 13.5,0.03 0.08,3.04 -0.22,4.14 1.66,5.95 1.74,1.66 3.98,1.3 6.27,1.3 2.44,0 4.44,0.37 6.24,-1.33l0.29 -0.27c1.71,-1.71 1.3,-3.59 1.36,-5.67l26.71 0.02c0.04,1.69 0.13,21.25 -0.04,22.6 -0.12,0.99 -1.03,1.88 -1.49,2.22 -0.92,0.68 -1.81,0.62 -3.14,0.62l-60.09 0c-1.68,0 -3,-0.1 -3.99,-1.69 -1,-1.61 -0.51,-6.19 -0.51,-8.76 0,-4.97 -0.08,-10 0.01,-14.96 1.48,-0.24 5.01,0.6 5.04,-1.26 0.01,-0.5 -0.26,-0.78 -0.55,-1l-0.2 -0.13c-0.58,-0.27 -3.03,-0.02 -4.28,-0.15zm26.73 -37.15c0,-2.02 0.95,-2.9 2.93,-2.9l8.39 0c1.14,0 2.19,0.12 3.08,0.62 0.94,0.53 1.38,1.03 1.38,2.4l-0.01 7.83 -15.77 -0.03 -0.01 -7.92zm-4.83 7.89c-1.17,0.23 -15.2,0.06 -18.08,0.07 -1.61,0 -3.4,0.57 -4.68,1.31 -0.53,0.3 -1.24,0.94 -1.69,1.38l-1.26 1.68c-0.3,0.51 -0.25,0.67 -0.41,1.09 -1.02,2.64 -0.6,4.79 -0.6,7.9l-0 40.14c0.01,2.02 0.49,3.58 1.63,5.08l0.15 0.2c0.01,0.02 0.03,0.05 0.05,0.06 0.59,0.74 1.71,1.8 2.65,2.23 0.35,0.16 0.4,0.22 0.68,0.33 2.92,1.13 6.98,0.69 10.29,0.69l40.14 0c2.79,0 13.94,0.19 15.79,-0.14 0.74,-0.13 1.04,-0.05 1.73,-0.34 1.9,-0.78 1.98,-0.78 3.64,-2.37 1.45,-1.39 2.16,-3.85 2.19,-5.86 0.07,-5.31 0,-10.67 0,-15.99l0 -24.15c0,-2.42 0.33,-5.39 -0.48,-7.46 -0.27,-0.69 -0.33,-1.11 -0.77,-1.72 -0.01,-0.02 -0.03,-0.05 -0.05,-0.07l-0.61 -0.87c-0.22,-0.34 -1,-1 -1.34,-1.26 -0.12,-0.09 -0.13,-0.11 -0.26,-0.2 -0.97,-0.74 -2.15,-1.17 -3.4,-1.47 -2.33,-0.55 -16.17,0.12 -19.76,-0.23 -0.09,-2.32 -0.02,-4.8 -0.01,-7.13 0,-1.95 -0.23,-4.07 -1.52,-5.6 -0.98,-1.17 -0.13,-0.37 -1.35,-1.37 -0.75,-0.61 -2.16,-1.26 -2.98,-1.4 -1.86,-0.33 -4.89,-0.17 -6.93,-0.17 -3.95,0 -7.84,-0.69 -10.52,1.75 -0.02,0.02 -0.04,0.04 -0.06,0.06l-0.87 0.95c-0.33,0.44 -0.97,1.85 -1.13,2.5 -0.31,1.26 -0.15,8.66 -0.18,10.38z"/>
 </g>
</svg>
