<?xml version="1.0" encoding="UTF-8"?>
<!DOCTYPE svg PUBLIC "-//W3C//DTD SVG 1.1//EN" "http://www.w3.org/Graphics/SVG/1.1/DTD/svg11.dtd">
<!-- Creator: CorelDRAW 2018 (64 Bit) -->
<svg xmlns="http://www.w3.org/2000/svg" xml:space="preserve" width="11.3245mm" height="11.7455mm" version="1.1" style="shape-rendering:geometricPrecision; text-rendering:geometricPrecision; image-rendering:optimizeQuality; fill-rule:evenodd; clip-rule:evenodd"
viewBox="0 0 38.2 39.62"
 xmlns:xlink="http://www.w3.org/1999/xlink">
 <defs>
  <style type="text/css">
   <![CDATA[
    .fil0 {fill:#FF0066}
   ]]>
  </style>
 </defs>
 <g id="Capa_x0020_1">
  <metadata id="CorelCorpID_0Corel-Layer"/>
  <path class="fil0" d="M6.05 17.76c0.01,5.8 -0,11.6 0,17.4 0,4.68 -0.46,4.46 4.24,4.46l17.51 0c4.66,0 4.35,0.31 4.35,-4.35 -0,-5.84 0,-11.67 0,-17.51 1.9,0 2.88,-0.34 4.04,-1.29 2.56,-2.07 1.94,-5.43 1.94,-8.72 -0,-1.81 0.18,-3.21 -0.6,-4.73 -1.73,-3.38 -4.7,-3 -7.67,-3l-21.43 0c-1.61,-0 -3.55,-0.18 -4.95,0.38 -1.3,0.52 -2.22,1.42 -2.79,2.54 -0.8,1.55 -0.63,2.85 -0.63,4.69 0,3.21 -0.62,6.75 1.87,8.79 1.18,0.96 2.14,1.33 4.11,1.33zm12.18 -1.2l-0.01 1.31c-1.2,0.46 -2.44,0.44 -3.93,1.94 -0.64,0.64 -1.31,1.77 -1.63,2.73 -0.12,0.37 -0.14,0.81 -0.31,1.18l-1.85 0.03 0 1.74 1.85 0.02c0.35,0.78 0.47,3.5 3.64,5.15 0.74,0.38 1.33,0.58 2.22,0.71l0.01 1.84 1.74 -0 0 -1.84c3.12,-0.45 5.41,-2.76 5.89,-5.86l1.82 -0.02 0 -1.74 -1.83 -0.02c-0.36,-2.34 -1.76,-4.17 -3.67,-5.14 -0.82,-0.42 -1.42,-0.4 -2.19,-0.71l-0.04 -1.85 -1.74 0 0 0.55zm1.74 9.24l0.01 3.79c2.09,-0.3 3.83,-2.01 4.12,-4.12l-4.13 -0 0 0.33zm-0 -5.44l0 0.87 0 2.5 0.65 -0 1.09 0 2.39 -0c-0.31,-2.11 -2.02,-3.72 -4.13,-4.07l-0 0.7zm-1.75 9.23l0.01 -4.12 -4.06 0c0.35,2.13 1.94,3.76 4.04,4.12zm-4.05 -5.86l4.06 0 0 -4.07c-2.09,0.38 -3.68,1.98 -4.06,4.07zm17.06 -19.58c-2.35,0.74 -1.11,3.89 0.92,3.27 2.19,-0.66 1.2,-3.94 -0.92,-3.27zm-22.35 8.82l0 23.82 20.44 -0 0 -24.25 -20.44 -0 0 0.43z"/>
 </g>
</svg>
