<?xml version="1.0" encoding="UTF-8"?>
<!DOCTYPE svg PUBLIC "-//W3C//DTD SVG 1.1//EN" "http://www.w3.org/Graphics/SVG/1.1/DTD/svg11.dtd">
<!-- Creator: CorelDRAW 2018 (64 Bit) -->
<svg xmlns="http://www.w3.org/2000/svg" xml:space="preserve" width="20.3962mm" height="15mm" version="1.1" style="shape-rendering:geometricPrecision; text-rendering:geometricPrecision; image-rendering:optimizeQuality; fill-rule:evenodd; clip-rule:evenodd"
viewBox="0 0 1736.15 1276.82"
 xmlns:xlink="http://www.w3.org/1999/xlink">
 <defs>
  <style type="text/css">
   <![CDATA[
    .fil0 {fill:#FEFEFE}
   ]]>
  </style>
 </defs>
 <g id="Capa_x0020_1">
  <metadata id="CorelCorpID_0Corel-Layer"/>
  <g id="_2025523374496">
   <g>
    <path class="fil0" d="M363.82 975.31c0,23.74 -19.21,42.81 -42.81,42.81 -23.74,0 -42.81,-19.21 -42.81,-42.81 0,-162.9 65.98,-310.41 172.8,-417.22 106.81,-106.82 254.32,-172.8 417.22,-172.8 162.9,0 310.4,65.98 417.22,172.8 106.81,106.81 172.8,254.32 172.8,417.22 0,23.74 -19.22,42.81 -42.82,42.81 -23.6,0 -42.81,-19.21 -42.81,-42.81 0,-139.31 -56.38,-265.34 -147.64,-356.61 -91.28,-91.28 -217.31,-147.65 -356.61,-147.65 -139.31,0 -265.33,56.52 -356.61,147.65 -91.56,91.27 -147.93,217.44 -147.93,356.61l0 0zm876.98 301.51c-2.26,-67.54 1.55,-68.52 -77.43,-98.05 -46.35,-17.38 -105.54,-39.42 -148.08,-65.84 -50.01,46.34 -82.08,99.33 -83.21,163.89l308.72 0 0 0zm-745.44 0c2.26,-67.54 -1.55,-68.52 77.43,-98.05 46.35,-17.38 105.54,-39.42 148.08,-65.84 50.01,46.34 82.08,99.33 83.21,163.89l-308.72 0 0 0zm272.12 -227.61c2.12,-17.1 -48.46,-81.95 -57.64,-113.17 -19.78,-31.37 -26.85,-81.38 -5.23,-114.59 8.61,-13.13 4.95,-36.73 4.95,-54.82 0,-180.7 316.62,-180.85 316.62,0 0,22.89 -5.23,40.26 7.21,58.21 20.77,30.1 10.04,83.37 -7.49,111.34 -11.16,32.64 -64.14,94.52 -60.47,113.17 3.11,92.69 -198.65,89.58 -197.94,-0.14l0 0 0 0zm968.67 -550.74l-72.63 93.82 51.57 106.81 -111.61 -40.13 -85.62 82.09 3.67 -118.54 -104.55 -56.09 113.87 -33.2 21.05 -116.85 66.68 98.05 117.56 -15.97 0 0 0 0 0 0zm-368.76 -368.9l-15.97 117.55 98.05 66.83 -116.7 21.19 -33.2 113.88 -56.09 -104.55 -118.54 3.67 82.09 -85.61 -40.27 -111.76 106.82 51.57 93.81 -72.76 0 0 0 0 0 0zm-1367.38 368.9l117.55 15.97 66.83 -98.05 21.2 116.7 113.87 33.2 -104.55 56.09 3.67 118.54 -85.76 -82.08 -111.76 40.13 51.57 -106.82 -72.63 -93.68 0 0 0 0 0 0zm368.76 -368.9l93.82 72.62 106.81 -51.57 -39.98 111.62 82.08 85.61 -118.54 -3.67 -56.09 104.55 -33.21 -113.88 -116.85 -21.05 98.06 -66.83 -16.11 -117.41 0 0 0 0 0 0zm499.31 -129.56l44.93 109.78 118.26 8.76 -90.42 76.72 28.26 115.29 -100.88 -62.44 -100.89 62.44 28.26 -115.29 -90.71 -76.72 118.26 -8.76 44.93 -109.78 0 0 0 0 0 0z"/>
   </g>
  </g>
 </g>
</svg>
