<?xml version="1.0" encoding="UTF-8"?>
<!DOCTYPE svg PUBLIC "-//W3C//DTD SVG 1.1//EN" "http://www.w3.org/Graphics/SVG/1.1/DTD/svg11.dtd">
<!-- Creator: CorelDRAW 2018 (64 Bit) -->
<svg xmlns="http://www.w3.org/2000/svg" xml:space="preserve" width="10.4435mm" height="32.4358mm" version="1.1" style="shape-rendering:geometricPrecision; text-rendering:geometricPrecision; image-rendering:optimizeQuality; fill-rule:evenodd; clip-rule:evenodd"
viewBox="0 0 36.73 114.07"
 xmlns:xlink="http://www.w3.org/1999/xlink">
 <defs>
  <style type="text/css">
   <![CDATA[
    .fil0 {fill:#DC0033}
   ]]>
  </style>
 </defs>
 <g id="Capa_x0020_1">
  <metadata id="CorelCorpID_0Corel-Layer"/>
  <path class="fil0" d="M24.15 98.76l0.15 -0.65c0.35,0.08 0.23,0.02 0.43,0.2 -0.13,0.25 -0.23,0.33 -0.58,0.45zm-5.66 -33.25c0.52,0.91 0.95,5.89 0.99,7.35 0.02,0.76 -0.15,1.27 -0.17,2 -0.02,0.87 0.17,1.12 0.32,1.82 0.19,0.86 -0.27,0.9 -0.13,1.83 0.22,1.57 -0,0.88 0.51,2.69 0.19,0.66 0.25,0.29 0.45,0.64 0.24,0.42 -0.97,3.52 -0.06,5.55 0.4,0.89 -0.15,2.61 -0.26,3.64 -0.1,0.91 0.01,0.91 -0.42,1.66 -0.27,0.47 -0.55,0.97 -0.96,1.24 -0.36,-0.37 -0.63,-6.57 -0.67,-7.06 -0.09,-0.98 -0.38,-2.64 -0.38,-3.54 0,-0.7 0.17,-1.09 0.23,-1.71 0.14,-1.28 0.34,-4.41 0.15,-5.51 -0.11,-0.64 -0.32,-0.95 -0.25,-1.65 0.07,-0.62 0.06,-1.26 0.11,-1.91 0.18,-2.47 -0.68,-4.9 0.55,-7.05zm-10.82 -15.8c-0.43,-0.03 -0.2,0.06 -0.5,-0.33 -0.12,-0.17 -0.16,-0.23 -0.29,-0.4 -0.2,-0.27 -0.51,-0.61 -0.58,-0.91 -0.43,-1.98 -0.56,-1.09 -0.54,-2.37 0.01,-0.84 -0.13,-4.91 -0.3,-5.47 -0.09,-0.28 -0.4,-0.67 -0.33,-1.08l0.75 -3.62c0.18,-0.48 0.4,-0.35 0.63,-0.88l0.74 -2.15c0.14,-0.4 -0.01,-0.11 0.27,-0.43l0.37 -0.37c0.12,1.35 0.54,2.87 0.75,4.24 0.41,2.56 -0.07,6.73 -0.34,9.4 -0.11,1.14 0,3.62 -0.63,4.38zm4.75 51.73c0.25,0.29 0.24,0.88 0.29,1.26 0.05,0.36 0.1,0.93 0.19,1.27 0.38,1.47 0.44,1.04 0.7,1.8 0.12,0.35 0.15,0.95 0.43,1.37 0.14,0.21 -0.13,0.02 0.33,0.18 -0.12,0.68 -0.37,1.17 -0.68,1.62l-0.58 1.04c-0.34,0.26 -0.82,1 -0.96,1.4 -0.05,0.13 -0.04,0.16 -0.1,0.3 -1.12,2.68 2.71,2.55 4.34,2.25 1.17,-0.22 1.55,-0.58 2.17,-1.09l-0.14 -1.05 0.06 -0.35c0.39,0.01 0.54,-0.13 0.82,-0.23 0.89,-0.9 0.24,-1.55 0.51,-3.06 0.77,0.4 0.48,0.47 0.94,0.64 -0.02,-0.36 -0.02,-0.18 -0.28,-0.43 -0.17,-0.08 -0.3,0 -0.48,-0.54 0.51,0.02 0.84,0.04 1.14,0.17l0.6 0.27c0.41,0.22 0.1,0.03 0.27,0.19 2.65,0.23 2.68,0.04 2.5,-2.23 -0.06,-0.82 -0.04,-1.72 -0.11,-2.5 -0.05,-0.59 -0.24,-1.13 -0.29,-2.19 -0.17,-3.47 0.37,-1.87 0.93,-3.04 0.19,-0.38 0.4,-0.5 0.54,-0.91 -0.31,0.1 -0.38,0.31 -0.64,0.6l-0.53 -0.34c0.03,-0.68 0.35,-1.19 0.41,-1.74 0.21,-1.84 -0.44,-1.7 0.68,-3.74 0.74,-1.34 1.21,-3.77 1.52,-5.28 0.23,-1.14 0.74,-2.64 0.75,-3.83 0.01,-1.27 0.46,-1.22 0.51,-4 0.03,-2.08 -0.63,0.04 -0.04,-4.01 0.2,-1.36 -0.13,-3.1 0.12,-4.29 0.26,-1.24 -0.06,-3.3 0.13,-4.46 0.41,-2.58 0.3,-1.61 0.33,-4.21 0.01,-0.96 -0.1,-3.51 0.21,-4.15 1.63,-3.4 0.29,-5.42 -0.18,-7.51 -0.12,-0.53 0.14,-0.32 0.22,-0.74 0.15,-0.79 -0.33,-2.16 -0.4,-2.98 -0.1,-1.35 -0.22,-2.83 -0.39,-4.18 -0.14,-1.15 0.11,-7.77 0.54,-8.44 0.15,0.58 0.18,1.22 0.3,1.8 0.25,1.18 0.82,2.28 0.84,3.53 0.02,1.02 0.22,3.02 0.5,3.91 0.3,0.96 -0.02,0.89 0.11,1.88 0.15,1.19 1.16,4.84 1.16,5.47 0.01,0.97 0.17,1.05 0.27,1.8 0.3,2.32 -0.14,1.8 -0.39,3.76 -0.19,1.51 -0.6,2.26 -0.82,3.57 -0.16,0.98 -0.22,1.82 -0.56,2.75 -0.18,0.47 -0.36,0.42 -0.21,0.88 0.48,0.58 1.28,0.06 1.58,-0.4 0.18,-0.28 0.25,-0.63 0.34,-0.96 0.34,-1.14 0,-0.78 0.42,-0.88 0.43,0.54 -0.13,2.34 -0.45,2.74 -0.49,0.62 -1.47,1.19 -0.95,2.14 0.74,0.09 1.96,-0.59 2.56,-1.03 0.32,-0.24 0.48,-0.19 0.84,-0.36 0.38,-0.18 0.25,-0.3 0.51,-0.68 0.27,-0.39 0.27,-0.17 0.42,-0.77 0.14,-0.54 0.53,-1.54 0.58,-1.84 0.09,-0.64 -0.21,-1.54 -0.2,-2.19 0,-0.47 0.16,-1.58 0.22,-2.17 0.07,-0.67 0.06,-1.56 0.21,-2.2 0.53,-2.2 0.58,-4.26 0.59,-6.54 0,-0.77 0.11,-1.41 0.06,-2.28l-0.62 -6.66c-0.27,-1.43 -0.62,-2.51 -0.82,-4.08 -0.35,-2.7 -1.26,-5.37 -1.61,-8.05 -0.18,-1.4 -0.43,-2.69 -0.86,-3.96 -0.38,-1.13 -1.14,-2.57 -1.81,-3.08 -0.48,-0.37 -1,-0.59 -1.51,-0.89 -0.29,-0.17 -0.47,-0.25 -0.79,-0.41 -0.43,-0.22 -0.39,-0.29 -0.71,-0.49 -0.82,-0.51 -3.95,-1.58 -5.21,-2.08 -0.68,-0.27 -0.66,-0.76 -0.97,-1.42 -0.31,-0.66 -0.68,-0.91 -0.45,-1.74l0.55 -2.04c0.01,0.02 0.06,-0.03 0.07,-0.04 0.58,-0.28 0.58,-0.6 0.81,-1.29 0.4,-1.25 0.08,-2.28 0.17,-2.84 0.14,-0.95 0.3,-2.24 0.05,-3.17 -0.17,-0.62 -0.52,-1.89 -1.08,-2.3 -0.64,-0.47 -1.16,-1.21 -2.09,-1.43 -0.43,-0.1 -0.64,0.02 -1.1,-0.09 -1.56,-0.38 -3.11,0.01 -4.52,0.86 -1.74,1.04 -2.12,4.06 -1.72,6.01 0.19,0.93 -0.02,0.27 -0.15,0.93 -0.08,0.4 0.14,1.64 0.27,2.05 0.26,0.85 0.35,0.93 0.99,1.39 0.06,0.47 0.14,1.12 0.26,1.54 0.4,1.32 0.55,1.47 -0.07,2.94 -0.29,0.68 -0.32,0.62 -0.98,0.92 -1.63,0.74 -3.65,1.47 -5.07,2.31l-2.39 1.31c-0.85,0.43 -1.04,1.33 -1.37,2.32 -0.62,1.83 -1.02,3.94 -1.59,5.8 -0.57,1.87 -1.19,3.64 -1.79,5.51 -0.23,0.73 -0.67,2.38 -0.5,3.15 0.09,0.45 0.22,0.11 0.04,0.58 -0.32,0.81 0.03,0.69 0.02,1.42 -0.06,2.88 0.48,2.26 0.5,4.02 0.01,0.93 0.41,2.14 0.49,3.2 0.19,2.53 0.79,1.55 2.28,5.15 0.18,0.44 0.39,0.75 0.59,1.21 0.52,1.2 0.9,0.41 1.57,2.02 0.19,0.45 0.38,0.85 0.62,1.29 1.04,1.94 0.95,3.82 1.21,6.18 0.12,1.13 0.34,2.21 0.35,3.34 0.01,1.14 0.09,2.3 0.32,3.38 0.44,2.03 0.6,4.36 0.89,6.5 0.29,2.12 0.34,4.56 0.71,6.6 0.56,3.06 0.73,6.81 1.35,9.73 0.28,1.33 0.78,5.14 0.87,6.54 0.06,0.94 0.55,2.55 0.51,3.12z"/>
 </g>
</svg>
