<?xml version="1.0" encoding="UTF-8"?>
<!DOCTYPE svg PUBLIC "-//W3C//DTD SVG 1.1//EN" "http://www.w3.org/Graphics/SVG/1.1/DTD/svg11.dtd">
<!-- Creator: CorelDRAW 2018 (64 Bit) -->
<svg xmlns="http://www.w3.org/2000/svg" xml:space="preserve" width="4.3338mm" height="4.5271mm" version="1.1" style="shape-rendering:geometricPrecision; text-rendering:geometricPrecision; image-rendering:optimizeQuality; fill-rule:evenodd; clip-rule:evenodd"
viewBox="0 0 7.54 7.88"
 xmlns:xlink="http://www.w3.org/1999/xlink">
 <defs>
  <style type="text/css">
   <![CDATA[
    .fil0 {fill:#00CCFF}
   ]]>
  </style>
 </defs>
 <g id="Capa_x0020_1">
  <metadata id="CorelCorpID_0Corel-Layer"/>
  <path class="fil0" d="M1.96 7.11l-1.96 0.77 0.75 -2.02c-0.36,-0.61 -0.55,-1.3 -0.55,-2.02 0,-2.13 1.66,-3.83 3.67,-3.83 2.02,0 3.67,1.7 3.67,3.83 0,2.13 -1.66,3.83 -3.67,3.83 -0.68,0 -1.34,-0.19 -1.91,-0.56zm0.07 -4.17c0.02,0.29 0.17,0.61 0.29,0.8 0.11,0.18 0.26,0.39 0.39,0.56 0.02,0.02 0.04,0.05 0.06,0.07l0.25 0.29c0.04,0.04 0.16,0.16 0.2,0.2 0.02,0.02 0.05,0.04 0.07,0.06 0.17,0.14 0.4,0.32 0.64,0.43 0.24,0.11 0.5,0.22 0.77,0.29 0.33,0.1 0.59,0.06 0.86,-0.1 0.24,-0.15 0.38,-0.28 0.41,-0.67 0.01,-0.12 0.01,-0.16 -0.07,-0.21l-0.52 -0.27c-0.4,-0.2 -0.39,-0.21 -0.52,-0.02 -0.08,0.11 -0.16,0.2 -0.24,0.3 -0.03,0.05 -0.08,0.1 -0.17,0.08 -0.07,-0.02 -0.29,-0.13 -0.36,-0.17 -0.38,-0.22 -0.59,-0.43 -0.84,-0.77 -0.4,-0.55 -0.12,-0.35 0.1,-0.83 0.04,-0.08 0.01,-0.13 -0.02,-0.21 -0.05,-0.13 -0.1,-0.26 -0.16,-0.39 -0.03,-0.07 -0.05,-0.13 -0.08,-0.19 -0.05,-0.12 -0.1,-0.31 -0.23,-0.32 -0.28,-0.02 -0.41,-0 -0.57,0.22 -0.16,0.22 -0.28,0.45 -0.25,0.83z"/>
 </g>
</svg>
