<?xml version="1.0" encoding="UTF-8"?>
<!DOCTYPE svg PUBLIC "-//W3C//DTD SVG 1.1//EN" "http://www.w3.org/Graphics/SVG/1.1/DTD/svg11.dtd">
<!-- Creator: CorelDRAW 2018 (64 Bit) -->
<svg xmlns="http://www.w3.org/2000/svg" xml:space="preserve" width="4.3339mm" height="4.5271mm" version="1.1" style="shape-rendering:geometricPrecision; text-rendering:geometricPrecision; image-rendering:optimizeQuality; fill-rule:evenodd; clip-rule:evenodd"
viewBox="0 0 6.92 7.23"
 xmlns:xlink="http://www.w3.org/1999/xlink">
 <defs>
  <style type="text/css">
   <![CDATA[
    .fil0 {fill:#FFCC29}
   ]]>
  </style>
 </defs>
 <g id="Capa_x0020_1">
  <metadata id="CorelCorpID_0Corel-Layer"/>
  <path class="fil0" d="M1.8 6.52l-1.8 0.71 0.69 -1.86c-0.33,-0.56 -0.51,-1.19 -0.51,-1.86 0,-1.95 1.52,-3.51 3.37,-3.51 1.85,0 3.37,1.56 3.37,3.51 0,1.95 -1.52,3.51 -3.37,3.51 -0.62,0 -1.23,-0.18 -1.75,-0.51zm0.06 -3.82c0.02,0.26 0.15,0.56 0.26,0.74 0.1,0.17 0.24,0.36 0.35,0.51 0.02,0.02 0.04,0.05 0.05,0.07l0.23 0.26c0.04,0.04 0.14,0.15 0.19,0.18 0.02,0.02 0.04,0.04 0.06,0.06 0.15,0.13 0.37,0.3 0.58,0.4 0.22,0.1 0.46,0.2 0.7,0.27 0.3,0.09 0.54,0.05 0.78,-0.09 0.22,-0.13 0.35,-0.26 0.38,-0.61 0.01,-0.11 0.01,-0.15 -0.06,-0.19l-0.48 -0.25c-0.37,-0.18 -0.35,-0.19 -0.48,-0.01 -0.07,0.1 -0.15,0.19 -0.22,0.28 -0.03,0.04 -0.08,0.1 -0.15,0.08 -0.07,-0.02 -0.27,-0.12 -0.33,-0.16 -0.35,-0.2 -0.54,-0.39 -0.77,-0.71 -0.37,-0.5 -0.11,-0.32 0.09,-0.77 0.04,-0.08 0.01,-0.12 -0.02,-0.19 -0.05,-0.12 -0.1,-0.24 -0.14,-0.36 -0.02,-0.06 -0.05,-0.12 -0.07,-0.18 -0.04,-0.11 -0.09,-0.28 -0.21,-0.29 -0.26,-0.02 -0.37,-0 -0.53,0.2 -0.15,0.2 -0.25,0.41 -0.23,0.76z"/>
 </g>
</svg>
